<svg width="155" height="39" viewBox="0 0 155 39" fill="none" xmlns="http://www.w3.org/2000/svg">
<path d="M-2.22623e-05 38.1213V1.7577H13.9204C16.5483 1.7577 18.7322 2.172 20.4723 3.0006C22.2242 3.81736 23.5322 4.93597 24.3963 6.35642C25.2722 7.77688 25.7102 9.38673 25.7102 11.186C25.7102 12.6656 25.4261 13.9322 24.8579 14.9857C24.2898 16.0273 23.5263 16.8737 22.5674 17.5247C21.6086 18.1758 20.5374 18.6434 19.3537 18.9274V19.2826C20.6439 19.3536 21.8809 19.7501 23.0646 20.4722C24.2602 21.1824 25.2367 22.1886 25.9943 23.4907C26.7519 24.7927 27.1307 26.3671 27.1307 28.2137C27.1307 30.0958 26.6749 31.7885 25.7635 33.2918C24.852 34.7833 23.4789 35.9611 21.6442 36.8252C19.8094 37.6893 17.5012 38.1213 14.7194 38.1213H-2.22623e-05ZM6.58734 32.6171H13.6719C16.063 32.6171 17.7853 32.1613 18.8388 31.2499C19.9041 30.3266 20.4368 29.1429 20.4368 27.6988C20.4368 26.6216 20.1704 25.6509 19.6378 24.7868C19.1051 23.9109 18.3475 23.2243 17.365 22.7272C16.3826 22.2182 15.2107 21.9637 13.8494 21.9637H6.58734V32.6171ZM6.58734 17.2229H13.1037C14.24 17.2229 15.2639 17.0158 16.1754 16.6015C17.0869 16.1753 17.803 15.5775 18.3238 14.8081C18.8565 14.0269 19.1228 13.1036 19.1228 12.0382C19.1228 10.6296 18.6257 9.46958 17.6314 8.55813C16.6489 7.64667 15.187 7.19094 13.2457 7.19094H6.58734V17.2229ZM32.5772 38.1213V10.8486H39.0048V38.1213H32.5772ZM35.8087 6.97787C34.7908 6.97787 33.9148 6.64051 33.1809 5.9658C32.447 5.27924 32.0801 4.45656 32.0801 3.49776C32.0801 2.52711 32.447 1.70443 33.1809 1.02972C33.9148 0.343164 34.7908 -0.000112057 35.8087 -0.000112057C36.8386 -0.000112057 37.7145 0.343164 38.4366 1.02972C39.1705 1.70443 39.5374 2.52711 39.5374 3.49776C39.5374 4.45656 39.1705 5.27924 38.4366 5.9658C37.7145 6.64051 36.8386 6.97787 35.8087 6.97787ZM57.5106 38.654C54.7881 38.654 52.4503 38.0562 50.4971 36.8607C48.5558 35.6651 47.0585 34.0139 46.0049 31.9068C44.9633 29.788 44.4424 27.3496 44.4424 24.5915C44.4424 21.8216 44.9751 19.3773 46.0405 17.2584C47.1058 15.1277 48.6091 13.4705 50.5504 12.2868C52.5035 11.0913 54.8118 10.4935 57.4751 10.4935C59.6887 10.4935 61.6477 10.9019 63.3523 11.7186C65.0686 12.5236 66.4358 13.6658 67.4538 15.1455C68.4718 16.6133 69.0518 18.3297 69.1939 20.2946H63.0504C62.8018 18.9807 62.21 17.8858 61.2748 17.0098C60.3515 16.122 59.1146 15.6782 57.5639 15.6782C56.25 15.6782 55.0959 16.0333 54.1015 16.7435C53.1072 17.4419 52.3319 18.448 51.7755 19.762C51.231 21.0759 50.9588 22.6502 50.9588 24.485C50.9588 26.3434 51.231 27.9414 51.7755 29.279C52.3201 30.6048 53.0835 31.6287 54.066 32.3507C55.0603 33.061 56.2263 33.4161 57.5639 33.4161C58.5109 33.4161 59.3572 33.2385 60.103 32.8834C60.8605 32.5165 61.4938 31.9897 62.0028 31.3032C62.5118 30.6166 62.861 29.7821 63.0504 28.7996H69.1939C69.04 30.7291 68.4718 32.4395 67.4893 33.931C66.5068 35.4106 65.1692 36.5707 63.4765 37.4111C61.7838 38.2397 59.7952 38.654 57.5106 38.654ZM86.3681 38.654C83.6455 38.654 81.3077 38.0562 79.3546 36.8607C77.4133 35.6651 75.9159 34.0139 74.8624 31.9068C73.8207 29.788 73.2999 27.3496 73.2999 24.5915C73.2999 21.8216 73.8325 19.3773 74.8979 17.2584C75.9632 15.1277 77.4665 13.4705 79.4078 12.2868C81.361 11.0913 83.6692 10.4935 86.3325 10.4935C88.5461 10.4935 90.5051 10.9019 92.2097 11.7186C93.9261 12.5236 95.2932 13.6658 96.3112 15.1455C97.3292 16.6133 97.9092 18.3297 98.0513 20.2946H91.9078C91.6592 18.9807 91.0674 17.8858 90.1323 17.0098C89.209 16.122 87.972 15.6782 86.4213 15.6782C85.1074 15.6782 83.9533 16.0333 82.959 16.7435C81.9646 17.4419 81.1893 18.448 80.633 19.762C80.0885 21.0759 79.8162 22.6502 79.8162 24.485C79.8162 26.3434 80.0885 27.9414 80.633 29.279C81.1775 30.6048 81.941 31.6287 82.9235 32.3507C83.9178 33.061 85.0837 33.4161 86.4213 33.4161C87.3683 33.4161 88.2146 33.2385 88.9604 32.8834C89.718 32.5165 90.3512 31.9897 90.8602 31.3032C91.3692 30.6166 91.7184 29.7821 91.9078 28.7996H98.0513C97.8974 30.7291 97.3292 32.4395 96.3467 33.931C95.3643 35.4106 94.0267 36.5707 92.334 37.4111C90.6413 38.2397 88.6526 38.654 86.3681 38.654ZM111.177 38.6718C109.449 38.6718 107.892 38.364 106.507 37.7485C105.134 37.1211 104.045 36.1978 103.24 34.9786C102.447 33.7594 102.051 32.256 102.051 30.4686C102.051 28.9298 102.335 27.6573 102.903 26.6512C103.471 25.645 104.247 24.8401 105.229 24.2364C106.212 23.6327 107.318 23.177 108.549 22.8692C109.792 22.5496 111.077 22.3188 112.402 22.1767C114 22.011 115.296 21.8631 116.291 21.7328C117.285 21.5908 118.007 21.3777 118.457 21.0936C118.919 20.7977 119.149 20.342 119.149 19.7265V19.6199C119.149 18.2823 118.753 17.2466 117.96 16.5127C117.167 15.7788 116.024 15.4118 114.533 15.4118C112.959 15.4118 111.71 15.7551 110.787 16.4417C109.875 17.1282 109.26 17.939 108.94 18.8742L102.939 18.0219C103.412 16.3647 104.193 14.9798 105.282 13.8671C106.371 12.7425 107.703 11.9021 109.277 11.3458C110.852 10.7776 112.592 10.4935 114.497 10.4935C115.811 10.4935 117.119 10.6474 118.421 10.9551C119.724 11.2629 120.913 11.7719 121.99 12.4821C123.068 13.1805 123.932 14.1334 124.583 15.3408C125.246 16.5482 125.577 18.0574 125.577 19.8685V38.1213H119.398V34.3749H119.185C118.794 35.1325 118.244 35.8427 117.534 36.5056C116.835 37.1566 115.953 37.6834 114.888 38.0858C113.835 38.4765 112.598 38.6718 111.177 38.6718ZM112.846 33.9488C114.136 33.9488 115.255 33.6943 116.202 33.1853C117.149 32.6644 117.877 31.9779 118.386 31.1256C118.907 30.2733 119.167 29.3441 119.167 28.338V25.1242C118.966 25.2899 118.623 25.4438 118.137 25.5858C117.664 25.7279 117.131 25.8522 116.539 25.9587C115.948 26.0652 115.362 26.1599 114.782 26.2428C114.202 26.3256 113.698 26.3967 113.272 26.4559C112.314 26.5861 111.455 26.7991 110.698 27.0951C109.94 27.391 109.342 27.8053 108.904 28.338C108.466 28.8588 108.247 29.5335 108.247 30.3621C108.247 31.5458 108.68 32.4395 109.544 33.0432C110.408 33.6469 111.509 33.9488 112.846 33.9488ZM153.596 18.0574L147.736 18.6966C147.57 18.1048 147.28 17.5484 146.866 17.0276C146.464 16.5068 145.919 16.0865 145.233 15.7669C144.546 15.4473 143.706 15.2875 142.711 15.2875C141.374 15.2875 140.249 15.5775 139.338 16.1576C138.438 16.7376 137.994 17.4892 138.006 18.4125C137.994 19.2056 138.284 19.8507 138.876 20.3479C139.48 20.8451 140.474 21.2534 141.859 21.573L146.511 22.5674C149.091 23.1237 151.009 24.0056 152.264 25.213C153.53 26.4203 154.17 28.0006 154.181 29.9537C154.17 31.6701 153.667 33.1853 152.672 34.4992C151.69 35.8013 150.323 36.8193 148.571 37.5532C146.819 38.2871 144.806 38.654 142.534 38.654C139.196 38.654 136.509 37.9556 134.473 36.5588C132.437 35.1502 131.223 33.1912 130.833 30.6817L137.1 30.078C137.385 31.3091 137.988 32.2383 138.912 32.8657C139.835 33.493 141.036 33.8067 142.516 33.8067C144.043 33.8067 145.268 33.493 146.191 32.8657C147.127 32.2383 147.594 31.463 147.594 30.5397C147.594 29.7584 147.292 29.1133 146.689 28.6043C146.097 28.0953 145.173 27.7047 143.919 27.4324L139.267 26.4559C136.651 25.9113 134.715 24.994 133.461 23.7037C132.206 22.4016 131.584 20.7563 131.596 18.7676C131.584 17.0868 132.04 15.6308 132.963 14.3997C133.899 13.1568 135.195 12.198 136.852 11.5233C138.521 10.8368 140.444 10.4935 142.622 10.4935C145.819 10.4935 148.334 11.1741 150.169 12.5354C152.015 13.8967 153.158 15.7373 153.596 18.0574Z" fill="#54BD95"/>
</svg>
