<svg width="190" height="220" viewBox="0 0 190 220" fill="none" xmlns="http://www.w3.org/2000/svg">
<g clip-path="url(#clip0_0_50)">
<rect x="48.658" width="146" height="188" rx="10" transform="rotate(15 48.658 0)" fill="#161C28"/>
<circle cx="8.75478" cy="163.755" r="79" transform="rotate(15 8.75478 163.755)" fill="#232937"/>
<circle cx="202.922" cy="46.947" r="79" transform="rotate(15 202.922 46.947)" fill="#232937"/>
<circle opacity="0.5" cx="84.0974" cy="34.1525" r="14" transform="rotate(15 84.0974 34.1525)" fill="white"/>
<circle opacity="0.5" cx="68.031" cy="29.8476" r="14" transform="rotate(15 68.031 29.8476)" fill="white"/>
<path d="M46.4513 78.0896L45.4305 77.8161C45.4488 77.5063 45.4123 77.22 45.3209 76.9573C45.2323 76.6953 45.1012 76.4602 44.9276 76.2519C44.7574 76.0416 44.5537 75.8635 44.3164 75.7175C44.079 75.5716 43.8204 75.4611 43.5405 75.3861C43.0301 75.2494 42.5331 75.2544 42.0496 75.4014C41.5689 75.549 41.1392 75.8412 40.7604 76.2779C40.3843 76.7154 40.0985 77.2991 39.9029 78.029C39.7074 78.759 39.663 79.4074 39.7699 79.9742C39.8796 80.5419 40.1057 81.0098 40.4482 81.378C40.7934 81.747 41.2213 81.9999 41.7317 82.1366C42.0116 82.2116 42.2908 82.2453 42.5693 82.2375C42.8479 82.2298 43.113 82.1788 43.3647 82.0845C43.6199 81.9882 43.8514 81.8487 44.0592 81.6662C44.2704 81.4816 44.4451 81.252 44.5835 80.9773L45.6043 81.2508C45.412 81.661 45.1687 82.0091 44.8745 82.2949C44.5803 82.5808 44.2502 82.8026 43.8844 82.9605C43.5193 83.1156 43.1323 83.2045 42.7232 83.2273C42.3169 83.2508 41.9011 83.2055 41.4758 83.0916C40.7568 82.8989 40.1645 82.552 39.6988 82.0507C39.2332 81.5495 38.9265 80.9321 38.779 80.1984C38.6315 79.4648 38.6768 78.6534 38.9151 77.7643C39.1533 76.8752 39.5197 76.1499 40.0143 75.5883C40.5089 75.0267 41.0831 74.6453 41.737 74.4441C42.391 74.2428 43.0774 74.2385 43.7963 74.4312C44.2217 74.5451 44.6044 74.7139 44.9445 74.9373C45.2874 75.1616 45.5777 75.4335 45.8156 75.7531C46.0542 76.07 46.2295 76.4258 46.3414 76.8204C46.454 77.2124 46.4906 77.6354 46.4513 78.0896ZM46.4162 84.2918L48.1103 77.9694L49.0488 78.2209L48.7929 79.1758L48.8588 79.1935C49.0579 78.9115 49.3344 78.7136 49.6885 78.5996C50.0425 78.4857 50.4089 78.4794 50.7876 78.5809C50.8589 78.6 50.9478 78.6253 51.054 78.6567C51.1603 78.6881 51.2402 78.7139 51.2936 78.7341L51.0289 79.722C50.9982 79.705 50.926 79.6724 50.8124 79.6243C50.7023 79.5742 50.5828 79.5319 50.4538 79.4973C50.1465 79.415 49.8548 79.4059 49.5787 79.4702C49.3062 79.5325 49.0698 79.6574 48.8695 79.8449C48.6728 80.0304 48.5362 80.2658 48.4597 80.5512L47.3876 84.5521L46.4162 84.2918ZM53.152 86.2379C52.5428 86.0746 52.0534 85.7994 51.6836 85.4121C51.3174 85.0227 51.0799 84.5532 50.9713 84.0036C50.8662 83.4519 50.9004 82.8522 51.074 82.2046C51.2475 81.557 51.5184 81.0179 51.8868 80.5872C52.2586 80.1544 52.6943 79.8565 53.1939 79.6933C53.697 79.5281 54.2339 79.522 54.8047 79.6749C55.134 79.7632 55.4444 79.9052 55.7361 80.101C56.0277 80.2968 56.2722 80.5534 56.4694 80.871C56.6674 81.1858 56.7906 81.5659 56.8389 82.0111C56.8873 82.4564 56.8324 82.9741 56.6743 83.5641L56.564 83.9757L51.6905 82.6698L51.9155 81.8301L55.8011 82.8713C55.8967 82.5145 55.9107 82.1771 55.843 81.859C55.778 81.5416 55.6369 81.267 55.4196 81.0353C55.205 80.8042 54.9221 80.6417 54.5709 80.5475C54.1839 80.4439 53.8234 80.4502 53.4893 80.5666C53.1587 80.6809 52.8771 80.8702 52.6445 81.1343C52.412 81.3985 52.249 81.7048 52.1557 82.0533L52.0057 82.6131C51.8777 83.0906 51.8516 83.5174 51.9273 83.8935C52.0064 84.2677 52.171 84.5809 52.4211 84.8332C52.6718 85.0827 52.9934 85.2601 53.3858 85.3652C53.641 85.4336 53.8811 85.4597 54.106 85.4435C54.3344 85.4253 54.5436 85.3637 54.7335 85.2587C54.9241 85.151 55.09 84.9983 55.2311 84.8009L56.099 85.3158C55.915 85.6076 55.6739 85.843 55.376 86.022C55.0788 86.1983 54.7406 86.3077 54.3616 86.3502C53.9833 86.39 53.5801 86.3526 53.152 86.2379ZM59.1037 87.8503C58.7031 87.7429 58.3597 87.57 58.0736 87.3316C57.7882 87.0904 57.5881 86.8 57.4732 86.4604C57.359 86.1181 57.3571 85.7411 57.4674 85.3295C57.5645 84.9673 57.7145 84.6928 57.9175 84.506C58.1212 84.3165 58.3597 84.1892 58.633 84.1242C58.9063 84.0592 59.1955 84.0337 59.5005 84.0478C59.809 84.0599 60.1152 84.0861 60.4192 84.1263C60.8166 84.1799 61.138 84.2263 61.3833 84.2656C61.6321 84.3028 61.8199 84.3046 61.9466 84.2709C62.076 84.2379 62.1617 84.1432 62.2036 83.9868L62.2124 83.9539C62.3212 83.5478 62.2946 83.2024 62.1327 82.9178C61.9734 82.634 61.6702 82.4322 61.2229 82.3123C60.7591 82.188 60.3683 82.1921 60.0505 82.3246C59.7326 82.4571 59.4893 82.6243 59.3205 82.8261L58.4867 82.2497C58.7543 81.9097 59.054 81.6694 59.3858 81.5289C59.721 81.3864 60.0633 81.3163 60.4126 81.3187C60.7655 81.3192 61.101 81.362 61.4193 81.4473C61.6224 81.5017 61.849 81.5889 62.0992 81.7089C62.3529 81.8269 62.5834 81.993 62.7907 82.2074C63.0007 82.4225 63.1479 82.7017 63.2324 83.0449C63.3169 83.3881 63.2919 83.8108 63.1573 84.313L62.0412 88.4785L61.0698 88.2182L61.2992 87.3621L61.2498 87.3488C61.1472 87.4684 60.9981 87.5858 60.8025 87.701C60.6069 87.8163 60.3668 87.8946 60.0822 87.936C59.7976 87.9774 59.4714 87.9488 59.1037 87.8503ZM59.4857 87.0173C59.8699 87.1203 60.2139 87.1316 60.5178 87.0512C60.8244 86.9716 61.0769 86.8305 61.2753 86.6278C61.4765 86.4258 61.6124 86.1931 61.683 85.9297L61.9212 85.0406C61.8668 85.0789 61.7641 85.0999 61.6132 85.1036C61.4657 85.1053 61.2973 85.0969 61.1081 85.0786C60.9224 85.0582 60.7415 85.0362 60.5655 85.0126C60.393 84.9869 60.2527 84.967 60.1448 84.9528C59.8835 84.9181 59.6332 84.9083 59.3938 84.9236C59.1579 84.9369 58.9532 84.9982 58.7798 85.1076C58.6098 85.215 58.4918 85.3922 58.4256 85.6392C58.3351 85.9767 58.3916 86.2654 58.595 86.5051C58.8019 86.7429 59.0988 86.9137 59.4857 87.0173ZM66.1663 89.725C65.6394 89.5838 65.21 89.3261 64.8779 88.9519C64.5466 88.5749 64.3325 88.1116 64.2356 87.5621C64.1394 87.0099 64.1811 86.399 64.3605 85.7295C64.5384 85.0654 64.8067 84.5196 65.1654 84.0922C65.524 83.6648 65.942 83.3724 66.4195 83.215C66.8969 83.0577 67.4018 83.0503 67.9342 83.193C68.3458 83.3033 68.6526 83.459 68.8546 83.6602C69.06 83.8593 69.2027 84.0623 69.2826 84.269C69.366 84.4737 69.4287 84.6405 69.4706 84.7693L69.5529 84.7914L70.3867 81.6796L71.3581 81.9399L69.0994 90.3698L68.1609 90.1183L68.4212 89.1469L68.3059 89.116C68.2037 89.2121 68.0632 89.3304 67.8844 89.4707C67.7064 89.6083 67.4769 89.713 67.1959 89.7847C66.9156 89.8537 66.5724 89.8338 66.1663 89.725ZM66.5318 88.8877C66.9215 88.9921 67.278 88.9788 67.6013 88.8478C67.9254 88.714 68.2059 88.4848 68.4429 88.1601C68.6807 87.8326 68.8635 87.4301 68.9915 86.9527C69.1179 86.4807 69.16 86.0493 69.1176 85.6586C69.076 85.2651 68.9472 84.9335 68.7312 84.6639C68.516 84.3915 68.2108 84.2024 67.8156 84.0965C67.404 83.9862 67.0327 83.9999 66.7017 84.1377C66.3741 84.2735 66.0936 84.5027 65.8601 84.8254C65.63 85.1461 65.4554 85.5287 65.3363 85.9733C65.2157 86.4233 65.1748 86.8506 65.2134 87.255C65.2556 87.6575 65.3835 88.0035 65.597 88.2931C65.8141 88.5807 66.1257 88.7789 66.5318 88.8877ZM71.0134 90.8826L72.7075 84.5602L73.6789 84.8205L71.9848 91.1429L71.0134 90.8826ZM73.4838 83.6388C73.2944 83.5881 73.1484 83.4798 73.0458 83.3141C72.9459 83.1491 72.9202 82.976 72.9687 82.7949C73.0172 82.6138 73.126 82.4768 73.295 82.3838C73.4668 82.2916 73.6473 82.2709 73.8367 82.3216C74.026 82.3724 74.1707 82.4802 74.2706 82.6452C74.3732 82.811 74.4003 82.9844 74.3517 83.1655C74.3032 83.3466 74.1931 83.4833 74.0213 83.5755C73.8523 83.6684 73.6731 83.6895 73.4838 83.6388ZM78.2077 86.034L77.9871 86.8572L74.7106 85.9793L74.9312 85.156L78.2077 86.034ZM76.292 83.8972L77.2635 84.1575L75.6488 90.1835C75.5753 90.4579 75.5599 90.6744 75.6027 90.8329C75.649 90.9895 75.729 91.108 75.8428 91.1884C75.96 91.2669 76.0899 91.3252 76.2326 91.3635C76.3396 91.3922 76.4289 91.4102 76.5004 91.4176C76.5727 91.4223 76.6306 91.426 76.6739 91.4288L76.6377 92.3544C76.5652 92.3614 76.4667 92.3615 76.342 92.3545C76.2167 92.3504 76.0635 92.324 75.8823 92.2755C75.6079 92.202 75.3548 92.0709 75.123 91.8823C74.8939 91.6945 74.7253 91.4566 74.6171 91.1688C74.5117 90.8818 74.5083 90.5544 74.6068 90.1867L76.292 83.8972ZM89.7029 89.6788L88.6821 89.4053C88.7004 89.0955 88.6639 88.8092 88.5725 88.5465C88.4839 88.2845 88.3528 88.0494 88.1792 87.8411C88.009 87.6308 87.8053 87.4527 87.5679 87.3068C87.3306 87.1608 87.072 87.0503 86.7921 86.9754C86.2817 86.8386 85.7847 86.8437 85.3012 86.9906C84.8205 87.1382 84.3907 87.4304 84.012 87.8672C83.6359 88.3046 83.3501 88.8883 83.1545 89.6183C82.9589 90.3482 82.9146 90.9966 83.0215 91.5635C83.1312 92.1311 83.3573 92.599 83.6998 92.9673C84.045 93.3362 84.4729 93.5891 84.9833 93.7259C85.2632 93.8009 85.5424 93.8345 85.8209 93.8268C86.0994 93.8191 86.3646 93.768 86.6163 93.6737C86.8715 93.5774 87.103 93.438 87.3108 93.2554C87.522 93.0708 87.6967 92.8412 87.835 92.5665L88.8559 92.84C88.6636 93.2503 88.4203 93.5983 88.1261 93.8842C87.8318 94.17 87.5018 94.3919 87.136 94.5497C86.7709 94.7048 86.3839 94.7938 85.9748 94.8165C85.5685 94.84 85.1527 94.7948 84.7274 94.6808C84.0084 94.4882 83.4161 94.1412 82.9504 93.64C82.4847 93.1387 82.1781 92.5213 82.0306 91.7877C81.8831 91.054 81.9284 90.2427 82.1667 89.3536C82.4049 88.4645 82.7713 87.7391 83.2659 87.1776C83.7605 86.616 84.3347 86.2346 84.9886 86.0333C85.6425 85.8321 86.329 85.8278 87.0479 86.0204C87.4733 86.1344 87.856 86.3031 88.1961 86.5266C88.539 86.7508 88.8293 87.0227 89.0672 87.3423C89.3058 87.6592 89.4811 88.015 89.593 88.4097C89.7056 88.8016 89.7422 89.2246 89.7029 89.6788ZM89.6678 95.8811L91.3619 89.5586L92.3004 89.8101L92.0445 90.7651L92.1104 90.7827C92.3094 90.5008 92.586 90.3028 92.9401 90.1889C93.2941 90.0749 93.6605 90.0687 94.0392 90.1701C94.1105 90.1892 94.1994 90.2145 94.3056 90.2459C94.4119 90.2774 94.4918 90.3032 94.5452 90.3234L94.2805 91.3112C94.2498 91.2942 94.1776 91.2616 94.064 91.2135C93.9539 91.1634 93.8344 91.1211 93.7054 91.0866C93.3981 91.0042 93.1064 90.9952 92.8303 91.0594C92.5578 91.1217 92.3214 91.2466 92.1211 91.4341C91.9244 91.6196 91.7877 91.8551 91.7113 92.1404L90.6392 96.1414L89.6678 95.8811ZM95.8013 97.6834C95.4007 97.576 95.0573 97.4031 94.7712 97.1647C94.4858 96.9235 94.2857 96.6331 94.1708 96.2935C94.0567 95.9512 94.0547 95.5742 94.165 95.1626C94.2621 94.8004 94.4121 94.5259 94.6151 94.3391C94.8188 94.1496 95.0573 94.0223 95.3306 93.9573C95.6039 93.8923 95.8931 93.8668 96.1981 93.8809C96.5067 93.893 96.8129 93.9192 97.1168 93.9594C97.5142 94.013 97.8356 94.0594 98.0809 94.0987C98.3298 94.1359 98.5175 94.1377 98.6442 94.104C98.7736 94.071 98.8593 93.9763 98.9012 93.8199L98.91 93.787C99.0188 93.3809 98.9923 93.0355 98.8303 92.7509C98.6711 92.4671 98.3678 92.2653 97.9205 92.1454C97.4567 92.0211 97.0659 92.0253 96.7481 92.1577C96.4303 92.2902 96.1869 92.4574 96.0182 92.6592L95.1844 92.0828C95.452 91.7428 95.7516 91.5025 96.0834 91.362C96.4186 91.2195 96.7609 91.1494 97.1103 91.1518C97.4631 91.1523 97.7987 91.1951 98.117 91.2804C98.32 91.3348 98.5467 91.422 98.7969 91.542C99.0506 91.66 99.281 91.8261 99.4883 92.0405C99.6983 92.2556 99.8456 92.5348 99.9301 92.878C100.015 93.2212 99.9895 93.6439 99.855 94.1461L98.7388 98.3116L97.7674 98.0513L97.9968 97.1952L97.9474 97.1819C97.8448 97.3015 97.6957 97.4189 97.5001 97.5341C97.3045 97.6494 97.0644 97.7277 96.7798 97.7691C96.4952 97.8105 96.169 97.7819 95.8013 97.6834ZM96.1833 96.8504C96.5675 96.9534 96.9115 96.9647 97.2154 96.8843C97.522 96.8047 97.7745 96.6636 97.973 96.4609C98.1742 96.2589 98.31 96.0262 98.3806 95.7628L98.6189 94.8737C98.5645 94.912 98.4618 94.933 98.3108 94.9367C98.1633 94.9384 97.9949 94.93 97.8057 94.9117C97.62 94.8913 97.4392 94.8693 97.2631 94.8457C97.0906 94.82 96.9504 94.8001 96.8424 94.7859C96.5811 94.7512 96.3308 94.7415 96.0914 94.7567C95.8555 94.77 95.6508 94.8313 95.4774 94.9407C95.3075 95.0481 95.1894 95.2253 95.1232 95.4723C95.0328 95.8098 95.0893 96.0985 95.2926 96.3382C95.4995 96.576 95.7964 96.7468 96.1833 96.8504ZM102.864 99.5581C102.337 99.4169 101.908 99.1592 101.576 98.785C101.244 98.408 101.03 97.9447 100.933 97.3952C100.837 96.843 100.879 96.2321 101.058 95.5626C101.236 94.8985 101.504 94.3527 101.863 93.9253C102.222 93.4979 102.64 93.2055 103.117 93.0481C103.595 92.8908 104.099 92.8834 104.632 93.0261C105.043 93.1364 105.35 93.2921 105.552 93.4933C105.758 93.6924 105.9 93.8954 105.98 94.1021C106.064 94.3068 106.126 94.4736 106.168 94.6024L106.251 94.6245L107.084 91.5127L108.056 91.773L105.797 100.203L104.859 99.9514L105.119 98.98L105.004 98.9491C104.901 99.0452 104.761 99.1635 104.582 99.3038C104.404 99.4414 104.174 99.5461 103.894 99.6178C103.613 99.6868 103.27 99.6669 102.864 99.5581ZM103.229 98.7208C103.619 98.8252 103.976 98.8119 104.299 98.6809C104.623 98.5471 104.904 98.3179 105.141 97.9932C105.378 97.6657 105.561 97.2632 105.689 96.7858C105.816 96.3138 105.858 95.8824 105.815 95.4917C105.774 95.0982 105.645 94.7666 105.429 94.497C105.214 94.2246 104.908 94.0355 104.513 93.9296C104.102 93.8193 103.73 93.833 103.399 93.9708C103.072 94.1066 102.791 94.3358 102.558 94.6585C102.328 94.9792 102.153 95.3618 102.034 95.8064C101.913 96.2564 101.872 96.6837 101.911 97.0881C101.953 97.4906 102.081 97.8366 102.295 98.1262C102.512 98.4138 102.823 98.612 103.229 98.7208Z" fill="#E6E6E6"/>
<circle cx="35.1433" cy="96.8006" r="2" transform="rotate(15 35.1433 96.8006)" fill="#D9D9D9"/>
<circle cx="45.7685" cy="99.6475" r="2" transform="rotate(15 45.7685 99.6475)" fill="#D9D9D9"/>
<circle cx="56.3937" cy="102.494" r="2" transform="rotate(15 56.3937 102.494)" fill="#D9D9D9"/>
<circle cx="67.0185" cy="105.341" r="2" transform="rotate(15 67.0185 105.341)" fill="#D9D9D9"/>
<path d="M84.6357 105.168L82.3769 113.598L81.3561 113.324L83.3281 105.965L83.2787 105.951L80.8545 106.766L81.1324 105.729L83.6149 104.894L84.6357 105.168ZM84.8013 114.247L84.9998 113.507L88.5985 111.206C89.0207 110.937 89.3727 110.699 89.6545 110.492C89.9372 110.282 90.1605 110.075 90.3245 109.869C90.492 109.661 90.6103 109.428 90.6795 109.17C90.7589 108.873 90.7563 108.598 90.6717 108.343C90.5898 108.088 90.4426 107.869 90.23 107.686C90.0174 107.503 89.7588 107.37 89.4542 107.288C89.1304 107.202 88.8297 107.193 88.5522 107.263C88.2782 107.331 88.0433 107.466 87.8476 107.67C87.6547 107.874 87.5152 108.136 87.4292 108.458L86.4577 108.197C86.5901 107.703 86.8201 107.3 87.1479 106.988C87.4757 106.676 87.8637 106.468 88.312 106.365C88.763 106.262 89.2341 106.277 89.7253 106.408C90.2193 106.54 90.629 106.762 90.9545 107.073C91.2801 107.384 91.5038 107.745 91.6258 108.157C91.7477 108.569 91.7506 108.992 91.6344 109.426C91.5513 109.736 91.4138 110.024 91.2219 110.29C91.0335 110.554 90.7535 110.831 90.382 111.119C90.0141 111.406 89.5191 111.744 88.8972 112.133L86.4611 113.651L86.4434 113.717L90.362 114.767L90.1194 115.672L84.8013 114.247ZM94.6369 117.006C94.0935 116.861 93.6342 116.638 93.2589 116.337C92.8863 116.037 92.6196 115.688 92.4588 115.289C92.3016 114.888 92.2712 114.464 92.3676 114.016L93.4049 114.294C93.354 114.571 93.3845 114.831 93.4962 115.073C93.6086 115.312 93.7836 115.52 94.0211 115.699C94.2586 115.877 94.5392 116.01 94.863 116.096C95.2253 116.193 95.5632 116.216 95.877 116.165C96.1907 116.114 96.4573 115.997 96.6767 115.815C96.8962 115.632 97.0456 115.393 97.125 115.097C97.2081 114.787 97.2044 114.493 97.114 114.216C97.0243 113.936 96.8493 113.689 96.5889 113.475C96.3286 113.261 95.9844 113.097 95.5563 112.982L94.8813 112.801L95.1239 111.896L95.799 112.077C96.1337 112.166 96.4435 112.185 96.7283 112.132C97.0159 112.079 97.2604 111.962 97.4619 111.781C97.6662 111.601 97.808 111.362 97.8875 111.066C97.9639 110.78 97.9673 110.515 97.8977 110.27C97.8281 110.025 97.6939 109.812 97.495 109.633C97.2988 109.454 97.0457 109.323 96.7356 109.239C96.4448 109.162 96.156 109.142 95.8694 109.179C95.5863 109.215 95.3369 109.312 95.1213 109.469C94.9065 109.623 94.7547 109.838 94.666 110.114L93.6781 109.85C93.8129 109.412 94.0497 109.061 94.3884 108.796C94.7278 108.528 95.1242 108.355 95.5776 108.276C96.0337 108.198 96.5046 108.225 96.9903 108.355C97.5117 108.494 97.9307 108.72 98.2473 109.031C98.5646 109.34 98.7775 109.692 98.8859 110.089C98.9943 110.486 98.9952 110.883 98.8886 111.281C98.7614 111.756 98.5281 112.127 98.1886 112.395C97.852 112.664 97.4537 112.805 96.9938 112.82L96.9761 112.886C97.485 113.117 97.84 113.454 98.0413 113.9C98.2434 114.342 98.2727 114.831 98.1294 115.366C98.0066 115.824 97.7714 116.202 97.4239 116.5C97.0799 116.796 96.6659 116.991 96.1819 117.085C95.698 117.179 95.1829 117.153 94.6369 117.006ZM99.4653 116.324L99.6903 115.484L104.965 110.615L105.575 110.778L105.226 112.079L104.814 111.969L100.829 115.648L100.811 115.714L105.8 117.05L105.557 117.956L99.4653 116.324ZM102.97 119.116L103.502 117.132L103.606 116.741L105.229 110.686L106.2 110.946L103.941 119.376L102.97 119.116Z" fill="#F0F0EF"/>
<path d="M109.622 181.068C109.002 180.901 108.519 180.591 108.173 180.137C107.828 179.679 107.626 179.098 107.568 178.391C107.512 177.682 107.606 176.869 107.851 175.952C108.096 175.041 108.419 174.294 108.823 173.711C109.229 173.126 109.696 172.722 110.224 172.498C110.755 172.273 111.328 172.242 111.942 172.407C112.557 172.572 113.037 172.884 113.381 173.344C113.729 173.802 113.931 174.386 113.988 175.095C114.049 175.802 113.957 176.612 113.713 177.523C113.467 178.439 113.142 179.19 112.738 179.776C112.335 180.359 111.87 180.763 111.342 180.986C110.815 181.207 110.242 181.234 109.622 181.068ZM109.864 180.162C110.479 180.327 111.036 180.158 111.535 179.657C112.034 179.155 112.431 178.356 112.725 177.258C112.921 176.528 113.009 175.886 112.99 175.33C112.974 174.776 112.856 174.326 112.637 173.979C112.421 173.633 112.11 173.405 111.704 173.296C111.095 173.133 110.538 173.306 110.034 173.815C109.531 174.321 109.133 175.122 108.839 176.217C108.644 176.947 108.554 177.587 108.571 178.139C108.588 178.691 108.705 179.138 108.922 179.481C109.141 179.826 109.456 180.052 109.864 180.162ZM119.121 174.331C119.466 174.426 119.794 174.585 120.105 174.806C120.416 175.028 120.675 175.326 120.88 175.702C121.086 176.075 121.207 176.541 121.242 177.1C121.277 177.66 121.191 178.327 120.984 179.1C120.783 179.85 120.534 180.496 120.235 181.039C119.94 181.581 119.606 182.015 119.233 182.341C118.863 182.669 118.461 182.885 118.027 182.989C117.596 183.094 117.143 183.083 116.669 182.956C116.197 182.829 115.8 182.623 115.48 182.337C115.163 182.049 114.931 181.706 114.785 181.308C114.642 180.908 114.598 180.477 114.651 180.015L115.655 180.284C115.642 180.695 115.736 181.063 115.937 181.388C116.142 181.71 116.467 181.931 116.911 182.05C117.562 182.224 118.151 182.078 118.679 181.611C119.21 181.144 119.614 180.392 119.892 179.355L119.826 179.337C119.611 179.527 119.375 179.677 119.119 179.787C118.863 179.898 118.594 179.964 118.312 179.986C118.029 180.007 117.743 179.979 117.452 179.901C116.969 179.772 116.558 179.533 116.218 179.187C115.882 178.838 115.65 178.421 115.521 177.937C115.395 177.45 115.406 176.935 115.551 176.392C115.689 175.876 115.931 175.435 116.276 175.068C116.625 174.7 117.043 174.445 117.532 174.302C118.023 174.16 118.552 174.169 119.121 174.331ZM118.878 175.236C118.533 175.144 118.198 175.147 117.874 175.245C117.554 175.342 117.275 175.514 117.035 175.761C116.798 176.007 116.633 176.305 116.539 176.656C116.445 177.008 116.436 177.348 116.513 177.677C116.592 178.005 116.744 178.289 116.967 178.531C117.194 178.772 117.481 178.938 117.826 179.031C118.087 179.101 118.343 179.115 118.596 179.074C118.849 179.03 119.083 178.941 119.298 178.807C119.517 178.672 119.704 178.503 119.861 178.301C120.019 178.096 120.132 177.869 120.199 177.619C120.287 177.29 120.29 176.96 120.208 176.629C120.129 176.299 119.974 176.008 119.745 175.755C119.519 175.503 119.23 175.33 118.878 175.236ZM126.742 176.073L121.321 185.438L120.432 185.199L125.853 175.834L126.742 176.073ZM125.512 185.202L125.711 184.461L129.309 182.161C129.732 181.891 130.084 181.653 130.366 181.446C130.648 181.237 130.871 181.029 131.035 180.823C131.203 180.615 131.321 180.382 131.39 180.124C131.47 179.828 131.467 179.552 131.383 179.297C131.301 179.043 131.154 178.824 130.941 178.64C130.728 178.457 130.47 178.324 130.165 178.243C129.841 178.156 129.541 178.148 129.263 178.217C128.989 178.285 128.754 178.421 128.559 178.624C128.366 178.828 128.226 179.091 128.14 179.412L127.169 179.152C127.301 178.658 127.531 178.255 127.859 177.943C128.187 177.63 128.575 177.423 129.023 177.319C129.474 177.216 129.945 177.231 130.436 177.363C130.93 177.495 131.34 177.716 131.666 178.027C131.991 178.338 132.215 178.699 132.337 179.111C132.459 179.524 132.462 179.946 132.345 180.38C132.262 180.69 132.125 180.978 131.933 181.244C131.744 181.509 131.464 181.785 131.093 182.074C130.725 182.36 130.23 182.698 129.608 183.088L127.172 184.605L127.154 184.671L131.073 185.721L130.83 186.627L125.512 185.202ZM135.134 187.903C134.651 187.774 134.242 187.561 133.906 187.266C133.571 186.97 133.331 186.623 133.188 186.226C133.044 185.829 133.019 185.413 133.111 184.979L134.099 185.244C134.036 185.636 134.124 185.998 134.364 186.33C134.608 186.66 134.946 186.882 135.376 186.998C135.722 187.091 136.051 187.092 136.364 187.002C136.679 186.913 136.951 186.748 137.18 186.506C137.413 186.263 137.578 185.961 137.674 185.602C137.773 185.234 137.779 184.884 137.695 184.553C137.614 184.219 137.455 183.932 137.22 183.689C136.985 183.447 136.688 183.276 136.33 183.177C136.072 183.105 135.797 183.074 135.503 183.083C135.21 183.09 134.959 183.133 134.75 183.212L133.826 182.841L135.448 178.829L139.827 180.002L139.585 180.908L136.061 179.964L135.099 182.371L135.148 182.384C135.358 182.293 135.605 182.237 135.89 182.216C136.175 182.196 136.459 182.223 136.741 182.299C137.257 182.437 137.684 182.684 138.021 183.039C138.362 183.392 138.59 183.812 138.707 184.299C138.826 184.787 138.813 185.304 138.666 185.85C138.522 186.388 138.273 186.836 137.918 187.194C137.567 187.55 137.149 187.793 136.663 187.925C136.179 188.054 135.669 188.047 135.134 187.903Z" fill="#F8F8FA"/>
<rect opacity="0.2" x="21.3064" y="140.716" width="34" height="22" rx="4" transform="rotate(15 21.3064 140.716)" fill="white"/>
</g>
<defs>
<clipPath id="clip0_0_50">
<rect x="48.658" width="146" height="188" rx="10" transform="rotate(15 48.658 0)" fill="white"/>
</clipPath>
</defs>
</svg>
