<svg width="49" height="49" viewBox="0 0 49 49" fill="none" xmlns="http://www.w3.org/2000/svg">
<rect x="10.3528" width="40" height="40" rx="10" transform="rotate(15 10.3528 0)" fill="#FFAA94"/>
<g clip-path="url(#clip0_0_30)">
<path d="M31.0923 28.8509C30.9779 29.2778 30.6986 29.6419 30.3158 29.8629C29.933 30.0839 29.478 30.1438 29.0511 30.0294L19.3918 27.4412L15.3093 29.7982L18.7603 16.9192C18.8747 16.4922 19.154 16.1282 19.5368 15.9072C19.9196 15.6862 20.3745 15.6263 20.8015 15.7407L32.0706 18.7602C32.4976 18.8747 32.8616 19.154 33.0826 19.5368C33.3037 19.9196 33.3636 20.3745 33.2492 20.8015L31.0923 28.8509Z" stroke="white" stroke-width="1.66667" stroke-linecap="round" stroke-linejoin="round"/>
</g>
<defs>
<clipPath id="clip0_0_30">
<rect width="20" height="20" fill="white" transform="translate(17.4238 12.2476) rotate(15)"/>
</clipPath>
</defs>
</svg>
